<mxfile host="app.diagrams.net" modified="2022-11-18T08:34:19.865Z" agent="5.0 (Macintosh; Intel Mac OS X 10_15_7) AppleWebKit/537.36 (KHTML, like Gecko) Chrome/107.0.0.0 Safari/537.36" etag="3tcRCxb__PZPo0VAB_gq" version="20.3.6" type="github">
  <diagram name="Scan Task" id="13e1069c-82ec-6db2-03f1-153e76fe0fe0">
    <mxGraphModel dx="1750" dy="787" grid="1" gridSize="10" guides="1" tooltips="1" connect="1" arrows="1" fold="1" page="1" pageScale="1" pageWidth="1100" pageHeight="850" background="none" math="0" shadow="0">
      <root>
        <mxCell id="0" />
        <mxCell id="1" parent="0" />
        <mxCell id="7baba1c4bc27f4b0-2" value="Lambda" style="shape=umlLifeline;perimeter=lifelinePerimeter;whiteSpace=wrap;html=1;container=1;collapsible=0;recursiveResize=0;outlineConnect=0;rounded=1;shadow=0;comic=0;labelBackgroundColor=none;strokeWidth=1;fontFamily=Verdana;fontSize=12;align=center;fillColor=#f5f5f5;strokeColor=#666666;fontColor=#333333;" parent="1" vertex="1">
          <mxGeometry x="240" y="80" width="145" height="760" as="geometry" />
        </mxCell>
        <mxCell id="7baba1c4bc27f4b0-10" value="" style="html=1;points=[];perimeter=orthogonalPerimeter;rounded=0;shadow=0;comic=0;labelBackgroundColor=none;strokeWidth=1;fontFamily=Verdana;fontSize=12;align=center;fillColor=#f5f5f5;strokeColor=#666666;fontColor=#333333;" parent="7baba1c4bc27f4b0-2" vertex="1">
          <mxGeometry x="67.5" y="100" width="10" height="90" as="geometry" />
        </mxCell>
        <mxCell id="T0NiDW6o_71jU2fMqlE4-4" value="" style="html=1;points=[];perimeter=orthogonalPerimeter;rounded=0;shadow=0;comic=0;labelBackgroundColor=none;strokeWidth=1;fontFamily=Verdana;fontSize=12;align=center;fillColor=#f5f5f5;strokeColor=#666666;fontColor=#333333;" vertex="1" parent="7baba1c4bc27f4b0-2">
          <mxGeometry x="67.5" y="230" width="10" height="160" as="geometry" />
        </mxCell>
        <mxCell id="T0NiDW6o_71jU2fMqlE4-40" value="return" style="html=1;verticalAlign=bottom;endArrow=open;dashed=1;endSize=8;labelBackgroundColor=none;fontFamily=Verdana;fontSize=12;edgeStyle=elbowEdgeStyle;elbow=vertical;fillColor=#f5f5f5;strokeColor=#666666;" edge="1" parent="7baba1c4bc27f4b0-2">
          <mxGeometry relative="1" as="geometry">
            <mxPoint x="80" y="662" as="targetPoint" />
            <Array as="points">
              <mxPoint x="393.5" y="661.97" />
              <mxPoint x="433.5" y="649.97" />
              <mxPoint x="863.5" y="671.97" />
            </Array>
            <mxPoint x="480" y="662" as="sourcePoint" />
          </mxGeometry>
        </mxCell>
        <mxCell id="T0NiDW6o_71jU2fMqlE4-35" value="" style="html=1;points=[];perimeter=orthogonalPerimeter;rounded=0;shadow=0;comic=0;labelBackgroundColor=none;strokeWidth=1;fontFamily=Verdana;fontSize=12;align=center;fillColor=#f5f5f5;strokeColor=#666666;fontColor=#333333;" vertex="1" parent="7baba1c4bc27f4b0-2">
          <mxGeometry x="62.5" y="520" width="15" height="210" as="geometry" />
        </mxCell>
        <mxCell id="7baba1c4bc27f4b0-3" value="Dynamodb" style="shape=umlLifeline;perimeter=lifelinePerimeter;whiteSpace=wrap;html=1;container=1;collapsible=0;recursiveResize=0;outlineConnect=0;rounded=1;shadow=0;comic=0;labelBackgroundColor=none;strokeWidth=1;fontFamily=Verdana;fontSize=12;align=center;fillColor=#f5f5f5;strokeColor=#666666;fontColor=#333333;" parent="1" vertex="1">
          <mxGeometry x="400" y="80" width="100" height="760" as="geometry" />
        </mxCell>
        <mxCell id="7baba1c4bc27f4b0-13" value="" style="html=1;points=[];perimeter=orthogonalPerimeter;rounded=0;shadow=0;comic=0;labelBackgroundColor=none;strokeWidth=1;fontFamily=Verdana;fontSize=12;align=center;fillColor=#f5f5f5;strokeColor=#666666;fontColor=#333333;" parent="7baba1c4bc27f4b0-3" vertex="1">
          <mxGeometry x="45" y="120" width="10" height="50" as="geometry" />
        </mxCell>
        <mxCell id="T0NiDW6o_71jU2fMqlE4-7" value="" style="html=1;points=[];perimeter=orthogonalPerimeter;rounded=0;shadow=0;comic=0;labelBackgroundColor=none;strokeWidth=1;fontFamily=Verdana;fontSize=12;align=center;fillColor=#f5f5f5;strokeColor=#666666;fontColor=#333333;" vertex="1" parent="7baba1c4bc27f4b0-3">
          <mxGeometry x="45" y="245" width="10" height="105" as="geometry" />
        </mxCell>
        <mxCell id="7baba1c4bc27f4b0-4" value="RDS" style="shape=umlLifeline;perimeter=lifelinePerimeter;whiteSpace=wrap;html=1;container=1;collapsible=0;recursiveResize=0;outlineConnect=0;rounded=1;shadow=0;comic=0;labelBackgroundColor=none;strokeWidth=1;fontFamily=Verdana;fontSize=12;align=center;fillColor=#f5f5f5;strokeColor=#666666;fontColor=#333333;" parent="1" vertex="1">
          <mxGeometry x="540" y="80" width="110" height="760" as="geometry" />
        </mxCell>
        <mxCell id="T0NiDW6o_71jU2fMqlE4-41" value="" style="html=1;points=[];perimeter=orthogonalPerimeter;rounded=0;shadow=0;comic=0;labelBackgroundColor=none;strokeWidth=1;fontFamily=Verdana;fontSize=12;align=center;fillColor=#f5f5f5;strokeColor=#666666;fontColor=#333333;" vertex="1" parent="7baba1c4bc27f4b0-4">
          <mxGeometry x="47.5" y="690" width="15" height="50" as="geometry" />
        </mxCell>
        <mxCell id="7baba1c4bc27f4b0-5" value="S3" style="shape=umlLifeline;perimeter=lifelinePerimeter;whiteSpace=wrap;html=1;container=1;collapsible=0;recursiveResize=0;outlineConnect=0;rounded=1;shadow=0;comic=0;labelBackgroundColor=none;strokeWidth=1;fontFamily=Verdana;fontSize=12;align=center;fillColor=#f5f5f5;strokeColor=#666666;fontColor=#333333;" parent="1" vertex="1">
          <mxGeometry x="680" y="80" width="100" height="760" as="geometry" />
        </mxCell>
        <mxCell id="T0NiDW6o_71jU2fMqlE4-24" value="" style="html=1;points=[];perimeter=orthogonalPerimeter;rounded=0;shadow=0;comic=0;labelBackgroundColor=none;strokeWidth=1;fontFamily=Verdana;fontSize=12;align=center;fillColor=#f5f5f5;strokeColor=#666666;fontColor=#333333;" vertex="1" parent="7baba1c4bc27f4b0-5">
          <mxGeometry x="42.5" y="455" width="15" height="75" as="geometry" />
        </mxCell>
        <mxCell id="T0NiDW6o_71jU2fMqlE4-29" value="return" style="html=1;verticalAlign=bottom;endArrow=open;dashed=1;endSize=8;labelBackgroundColor=none;fontFamily=Verdana;fontSize=12;edgeStyle=elbowEdgeStyle;elbow=vertical;exitX=-0.35;exitY=0.867;exitDx=0;exitDy=0;exitPerimeter=0;fillColor=#f5f5f5;strokeColor=#666666;" edge="1" parent="7baba1c4bc27f4b0-5">
          <mxGeometry relative="1" as="geometry">
            <mxPoint x="330" y="512" as="targetPoint" />
            <Array as="points">
              <mxPoint x="-6.5" y="511.97" />
              <mxPoint x="33.5" y="499.97" />
              <mxPoint x="463.5" y="521.97" />
            </Array>
            <mxPoint x="57.5" y="510" as="sourcePoint" />
          </mxGeometry>
        </mxCell>
        <mxCell id="T0NiDW6o_71jU2fMqlE4-37" value="" style="html=1;points=[];perimeter=orthogonalPerimeter;rounded=0;shadow=0;comic=0;labelBackgroundColor=none;strokeWidth=1;fontFamily=Verdana;fontSize=12;align=center;fillColor=#f5f5f5;strokeColor=#666666;fontColor=#333333;" vertex="1" parent="7baba1c4bc27f4b0-5">
          <mxGeometry x="42.5" y="590" width="15" height="90" as="geometry" />
        </mxCell>
        <mxCell id="7baba1c4bc27f4b0-8" value="Consloe" style="shape=umlLifeline;perimeter=lifelinePerimeter;whiteSpace=wrap;html=1;container=1;collapsible=0;recursiveResize=0;outlineConnect=0;rounded=1;shadow=0;comic=0;labelBackgroundColor=none;strokeWidth=1;fontFamily=Verdana;fontSize=12;align=center;fillColor=#f5f5f5;strokeColor=#666666;fontColor=#333333;" parent="1" vertex="1">
          <mxGeometry x="100" y="80" width="100" height="760" as="geometry" />
        </mxCell>
        <mxCell id="7baba1c4bc27f4b0-9" value="" style="html=1;points=[];perimeter=orthogonalPerimeter;rounded=0;shadow=0;comic=0;labelBackgroundColor=none;strokeWidth=1;fontFamily=Verdana;fontSize=12;align=center;fillColor=#f5f5f5;strokeColor=#666666;fontColor=#333333;" parent="7baba1c4bc27f4b0-8" vertex="1">
          <mxGeometry x="45" y="100" width="10" height="440" as="geometry" />
        </mxCell>
        <mxCell id="7baba1c4bc27f4b0-21" value="return" style="html=1;verticalAlign=bottom;endArrow=open;dashed=1;endSize=8;labelBackgroundColor=none;fontFamily=Verdana;fontSize=12;edgeStyle=elbowEdgeStyle;elbow=vertical;exitX=-0.1;exitY=0.76;exitDx=0;exitDy=0;exitPerimeter=0;fillColor=#f5f5f5;strokeColor=#666666;" parent="1" source="7baba1c4bc27f4b0-13" target="7baba1c4bc27f4b0-2" edge="1">
          <mxGeometry relative="1" as="geometry">
            <mxPoint x="650" y="306" as="targetPoint" />
            <Array as="points">
              <mxPoint x="380" y="240" />
              <mxPoint x="700" y="260" />
            </Array>
          </mxGeometry>
        </mxCell>
        <mxCell id="7baba1c4bc27f4b0-23" value="Scan Task" style="html=1;verticalAlign=bottom;endArrow=block;labelBackgroundColor=none;fontFamily=Verdana;fontSize=12;fillColor=#f5f5f5;strokeColor=#666666;" parent="1" source="7baba1c4bc27f4b0-8" target="T0NiDW6o_71jU2fMqlE4-4" edge="1">
          <mxGeometry relative="1" as="geometry">
            <mxPoint x="160" y="440" as="sourcePoint" />
            <Array as="points">
              <mxPoint x="220" y="330" />
            </Array>
          </mxGeometry>
        </mxCell>
        <mxCell id="7baba1c4bc27f4b0-11" value="Describe Agent List" style="html=1;verticalAlign=bottom;endArrow=block;entryX=0;entryY=0;labelBackgroundColor=none;fontFamily=Verdana;fontSize=12;edgeStyle=elbowEdgeStyle;elbow=vertical;fillColor=#f5f5f5;strokeColor=#666666;" parent="1" source="7baba1c4bc27f4b0-9" target="7baba1c4bc27f4b0-10" edge="1">
          <mxGeometry relative="1" as="geometry">
            <mxPoint x="220" y="190" as="sourcePoint" />
          </mxGeometry>
        </mxCell>
        <mxCell id="7baba1c4bc27f4b0-14" value="Describe Agent List" style="html=1;verticalAlign=bottom;endArrow=block;entryX=0;entryY=0;labelBackgroundColor=none;fontFamily=Verdana;fontSize=12;edgeStyle=elbowEdgeStyle;elbow=vertical;fillColor=#f5f5f5;strokeColor=#666666;" parent="1" source="7baba1c4bc27f4b0-10" target="7baba1c4bc27f4b0-13" edge="1">
          <mxGeometry relative="1" as="geometry">
            <mxPoint x="370" y="200" as="sourcePoint" />
          </mxGeometry>
        </mxCell>
        <mxCell id="7baba1c4bc27f4b0-46" value="Consloe发起扫描时序" style="shape=note;whiteSpace=wrap;html=1;size=14;verticalAlign=top;align=left;spacingTop=-6;rounded=0;shadow=0;comic=0;labelBackgroundColor=none;strokeWidth=1;fontFamily=Verdana;fontSize=12;fillColor=#f5f5f5;strokeColor=#666666;fontColor=#333333;" parent="1" vertex="1">
          <mxGeometry x="545" y="10" width="100" height="35" as="geometry" />
        </mxCell>
        <mxCell id="T0NiDW6o_71jU2fMqlE4-3" value="return" style="html=1;verticalAlign=bottom;endArrow=open;dashed=1;endSize=8;labelBackgroundColor=none;fontFamily=Verdana;fontSize=12;edgeStyle=elbowEdgeStyle;elbow=vertical;exitX=-0.35;exitY=0.867;exitDx=0;exitDy=0;exitPerimeter=0;fillColor=#f5f5f5;strokeColor=#666666;" edge="1" parent="1" source="7baba1c4bc27f4b0-10" target="7baba1c4bc27f4b0-8">
          <mxGeometry relative="1" as="geometry">
            <mxPoint x="299.5" y="250" as="targetPoint" />
            <Array as="points">
              <mxPoint x="240" y="260" />
              <mxPoint x="280" y="248" />
              <mxPoint x="710" y="270" />
            </Array>
            <mxPoint x="280" y="260" as="sourcePoint" />
          </mxGeometry>
        </mxCell>
        <mxCell id="T0NiDW6o_71jU2fMqlE4-5" value="API Gateway&lt;br&gt;(websocket)" style="shape=umlLifeline;perimeter=lifelinePerimeter;whiteSpace=wrap;html=1;container=1;collapsible=0;recursiveResize=0;outlineConnect=0;rounded=1;shadow=0;comic=0;labelBackgroundColor=none;strokeWidth=1;fontFamily=Verdana;fontSize=12;align=center;fillColor=#f5f5f5;strokeColor=#666666;fontColor=#333333;" vertex="1" parent="1">
          <mxGeometry x="830" y="80" width="100" height="760" as="geometry" />
        </mxCell>
        <mxCell id="T0NiDW6o_71jU2fMqlE4-16" value="" style="html=1;points=[];perimeter=orthogonalPerimeter;rounded=0;shadow=0;comic=0;labelBackgroundColor=none;strokeWidth=1;fontFamily=Verdana;fontSize=12;align=center;fillColor=#f5f5f5;strokeColor=#666666;fontColor=#333333;" vertex="1" parent="T0NiDW6o_71jU2fMqlE4-5">
          <mxGeometry x="45" y="340" width="15" height="105" as="geometry" />
        </mxCell>
        <mxCell id="T0NiDW6o_71jU2fMqlE4-6" value="Agent" style="shape=umlLifeline;perimeter=lifelinePerimeter;whiteSpace=wrap;html=1;container=1;collapsible=0;recursiveResize=0;outlineConnect=0;rounded=1;shadow=0;comic=0;labelBackgroundColor=none;strokeWidth=1;fontFamily=Verdana;fontSize=12;align=center;fillColor=#f5f5f5;strokeColor=#666666;fontColor=#333333;" vertex="1" parent="1">
          <mxGeometry x="970" y="80" width="100" height="750" as="geometry" />
        </mxCell>
        <mxCell id="T0NiDW6o_71jU2fMqlE4-19" value="" style="html=1;points=[];perimeter=orthogonalPerimeter;rounded=0;shadow=0;comic=0;labelBackgroundColor=none;strokeWidth=1;fontFamily=Verdana;fontSize=12;align=center;fillColor=#f5f5f5;strokeColor=#666666;fontColor=#333333;" vertex="1" parent="T0NiDW6o_71jU2fMqlE4-6">
          <mxGeometry x="42.5" y="340" width="15" height="260" as="geometry" />
        </mxCell>
        <mxCell id="T0NiDW6o_71jU2fMqlE4-8" value="" style="edgeStyle=orthogonalEdgeStyle;rounded=0;orthogonalLoop=1;jettySize=auto;html=1;fillColor=#f5f5f5;strokeColor=#666666;" edge="1" parent="1" source="T0NiDW6o_71jU2fMqlE4-4" target="T0NiDW6o_71jU2fMqlE4-7">
          <mxGeometry relative="1" as="geometry">
            <Array as="points">
              <mxPoint x="380" y="355" />
              <mxPoint x="380" y="355" />
            </Array>
          </mxGeometry>
        </mxCell>
        <mxCell id="T0NiDW6o_71jU2fMqlE4-43" value="Get Connection" style="edgeLabel;html=1;align=center;verticalAlign=middle;resizable=0;points=[];" vertex="1" connectable="0" parent="T0NiDW6o_71jU2fMqlE4-8">
          <mxGeometry x="-0.1294" y="2" relative="1" as="geometry">
            <mxPoint x="12" y="-13" as="offset" />
          </mxGeometry>
        </mxCell>
        <mxCell id="T0NiDW6o_71jU2fMqlE4-12" value="return" style="html=1;verticalAlign=bottom;endArrow=open;dashed=1;endSize=8;labelBackgroundColor=none;fontFamily=Verdana;fontSize=12;edgeStyle=elbowEdgeStyle;elbow=vertical;exitX=-0.35;exitY=0.867;exitDx=0;exitDy=0;exitPerimeter=0;fillColor=#f5f5f5;strokeColor=#666666;" edge="1" parent="1">
          <mxGeometry relative="1" as="geometry">
            <mxPoint x="320" y="402" as="targetPoint" />
            <Array as="points">
              <mxPoint x="380.5" y="401.97" />
              <mxPoint x="420.5" y="389.97" />
              <mxPoint x="850.5" y="411.97" />
            </Array>
            <mxPoint x="444.5" y="400" as="sourcePoint" />
          </mxGeometry>
        </mxCell>
        <mxCell id="T0NiDW6o_71jU2fMqlE4-13" value="" style="edgeStyle=orthogonalEdgeStyle;rounded=0;orthogonalLoop=1;jettySize=auto;html=1;fillColor=#f5f5f5;strokeColor=#666666;" edge="1" parent="1" source="T0NiDW6o_71jU2fMqlE4-4">
          <mxGeometry relative="1" as="geometry">
            <mxPoint x="870" y="450" as="targetPoint" />
            <Array as="points">
              <mxPoint x="700" y="450" />
              <mxPoint x="700" y="450" />
            </Array>
          </mxGeometry>
        </mxCell>
        <mxCell id="T0NiDW6o_71jU2fMqlE4-44" value="&lt;span style=&quot;color: rgb(51, 51, 51); font-size: 12px; background-color: rgb(248, 249, 250);&quot;&gt;Send Task Message&lt;/span&gt;" style="edgeLabel;html=1;align=center;verticalAlign=middle;resizable=0;points=[];" vertex="1" connectable="0" parent="T0NiDW6o_71jU2fMqlE4-13">
          <mxGeometry x="-0.1801" relative="1" as="geometry">
            <mxPoint x="-13" y="-10" as="offset" />
          </mxGeometry>
        </mxCell>
        <mxCell id="T0NiDW6o_71jU2fMqlE4-20" value="" style="edgeStyle=orthogonalEdgeStyle;rounded=0;orthogonalLoop=1;jettySize=auto;html=1;fillColor=#f5f5f5;strokeColor=#666666;" edge="1" parent="1" source="T0NiDW6o_71jU2fMqlE4-16" target="T0NiDW6o_71jU2fMqlE4-19">
          <mxGeometry relative="1" as="geometry">
            <Array as="points">
              <mxPoint x="980" y="473" />
              <mxPoint x="980" y="473" />
            </Array>
          </mxGeometry>
        </mxCell>
        <mxCell id="T0NiDW6o_71jU2fMqlE4-45" value="&lt;span style=&quot;color: rgb(51, 51, 51); font-size: 12px; background-color: rgb(248, 249, 250);&quot;&gt;Task&lt;/span&gt;" style="edgeLabel;html=1;align=center;verticalAlign=middle;resizable=0;points=[];" vertex="1" connectable="0" parent="T0NiDW6o_71jU2fMqlE4-20">
          <mxGeometry x="0.0449" y="3" relative="1" as="geometry">
            <mxPoint x="-4" y="-9" as="offset" />
          </mxGeometry>
        </mxCell>
        <mxCell id="T0NiDW6o_71jU2fMqlE4-25" value="" style="edgeStyle=orthogonalEdgeStyle;rounded=0;orthogonalLoop=1;jettySize=auto;html=1;fillColor=#f5f5f5;strokeColor=#666666;" edge="1" parent="1" source="T0NiDW6o_71jU2fMqlE4-19" target="T0NiDW6o_71jU2fMqlE4-24">
          <mxGeometry relative="1" as="geometry">
            <Array as="points">
              <mxPoint x="960" y="560" />
              <mxPoint x="960" y="560" />
            </Array>
          </mxGeometry>
        </mxCell>
        <mxCell id="T0NiDW6o_71jU2fMqlE4-46" value="&lt;span style=&quot;color: rgb(51, 51, 51); font-size: 12px; background-color: rgb(248, 249, 250);&quot;&gt;Report Raw Result&lt;/span&gt;" style="edgeLabel;html=1;align=center;verticalAlign=middle;resizable=0;points=[];" vertex="1" connectable="0" parent="T0NiDW6o_71jU2fMqlE4-25">
          <mxGeometry x="-0.2255" y="-3" relative="1" as="geometry">
            <mxPoint x="34" y="-7" as="offset" />
          </mxGeometry>
        </mxCell>
        <mxCell id="T0NiDW6o_71jU2fMqlE4-36" value="" style="edgeStyle=orthogonalEdgeStyle;rounded=0;orthogonalLoop=1;jettySize=auto;html=1;entryX=1.2;entryY=0.256;entryDx=0;entryDy=0;entryPerimeter=0;fillColor=#f5f5f5;strokeColor=#666666;" edge="1" parent="1" source="T0NiDW6o_71jU2fMqlE4-30" target="T0NiDW6o_71jU2fMqlE4-35">
          <mxGeometry relative="1" as="geometry">
            <Array as="points">
              <mxPoint x="730" y="654" />
              <mxPoint x="730" y="654" />
            </Array>
          </mxGeometry>
        </mxCell>
        <mxCell id="T0NiDW6o_71jU2fMqlE4-30" value="" style="html=1;points=[];perimeter=orthogonalPerimeter;rounded=0;shadow=0;comic=0;labelBackgroundColor=none;strokeWidth=1;fontFamily=Verdana;fontSize=12;align=center;fillColor=#f5f5f5;strokeColor=#666666;fontColor=#333333;" vertex="1" parent="1">
          <mxGeometry x="872.5" y="610" width="15" height="80" as="geometry" />
        </mxCell>
        <mxCell id="T0NiDW6o_71jU2fMqlE4-31" value="" style="edgeStyle=orthogonalEdgeStyle;rounded=0;orthogonalLoop=1;jettySize=auto;html=1;fillColor=#f5f5f5;strokeColor=#666666;" edge="1" parent="1" source="T0NiDW6o_71jU2fMqlE4-19" target="T0NiDW6o_71jU2fMqlE4-30">
          <mxGeometry relative="1" as="geometry">
            <Array as="points">
              <mxPoint x="990" y="650" />
              <mxPoint x="990" y="650" />
            </Array>
          </mxGeometry>
        </mxCell>
        <mxCell id="T0NiDW6o_71jU2fMqlE4-47" value="&lt;span style=&quot;color: rgb(51, 51, 51); font-size: 12px; background-color: rgb(248, 249, 250);&quot;&gt;Result Message&lt;/span&gt;" style="edgeLabel;html=1;align=center;verticalAlign=middle;resizable=0;points=[];" vertex="1" connectable="0" parent="T0NiDW6o_71jU2fMqlE4-31">
          <mxGeometry x="0.304" y="-1" relative="1" as="geometry">
            <mxPoint x="20" y="-9" as="offset" />
          </mxGeometry>
        </mxCell>
        <mxCell id="T0NiDW6o_71jU2fMqlE4-38" value="" style="edgeStyle=orthogonalEdgeStyle;rounded=0;orthogonalLoop=1;jettySize=auto;html=1;fillColor=#f5f5f5;strokeColor=#666666;" edge="1" parent="1" target="T0NiDW6o_71jU2fMqlE4-37">
          <mxGeometry relative="1" as="geometry">
            <mxPoint x="320" y="710" as="sourcePoint" />
            <Array as="points">
              <mxPoint x="540" y="710" />
              <mxPoint x="540" y="710" />
            </Array>
          </mxGeometry>
        </mxCell>
        <mxCell id="T0NiDW6o_71jU2fMqlE4-48" value="&lt;span style=&quot;color: rgb(51, 51, 51); font-size: 12px; background-color: rgb(248, 249, 250);&quot;&gt;Get Raw Result&lt;/span&gt;" style="edgeLabel;html=1;align=center;verticalAlign=middle;resizable=0;points=[];" vertex="1" connectable="0" parent="T0NiDW6o_71jU2fMqlE4-38">
          <mxGeometry x="-0.1106" y="2" relative="1" as="geometry">
            <mxPoint y="-8" as="offset" />
          </mxGeometry>
        </mxCell>
        <mxCell id="T0NiDW6o_71jU2fMqlE4-42" value="" style="edgeStyle=orthogonalEdgeStyle;rounded=0;orthogonalLoop=1;jettySize=auto;html=1;" edge="1" parent="1" source="T0NiDW6o_71jU2fMqlE4-35" target="T0NiDW6o_71jU2fMqlE4-41">
          <mxGeometry relative="1" as="geometry">
            <Array as="points">
              <mxPoint x="340" y="790" />
              <mxPoint x="340" y="790" />
            </Array>
          </mxGeometry>
        </mxCell>
        <mxCell id="T0NiDW6o_71jU2fMqlE4-49" value="Save Result" style="edgeLabel;html=1;align=center;verticalAlign=middle;resizable=0;points=[];" vertex="1" connectable="0" parent="T0NiDW6o_71jU2fMqlE4-42">
          <mxGeometry x="-0.4679" y="4" relative="1" as="geometry">
            <mxPoint x="52" y="-6" as="offset" />
          </mxGeometry>
        </mxCell>
      </root>
    </mxGraphModel>
  </diagram>
</mxfile>
